<svg id="Layer_1" data-name="Layer 1" xmlns="http://www.w3.org/2000/svg" xmlns:xlink="http://www.w3.org/1999/xlink" viewBox="0 0 635.03 608.49"><defs><style>.cls-1{fill:url(#linear-gradient);}</style><linearGradient id="linear-gradient" x1="19766.86" y1="-12792.38" x2="-2392.8" y2="216.15" gradientTransform="matrix(0.03, 0, 0, -0.03, 649.69, 310.99)" gradientUnits="userSpaceOnUse"><stop offset="0" stop-color="#62c3af"/><stop offset="0.56" stop-color="#4aac9e"/><stop offset="1" stop-color="#34978f"/></linearGradient></defs><path class="cls-1" d="M1020.67,802.54c46.3,7.2,89-1.39,133.68-25.89,110.31-60.54,145.34-188.29,82.83-302.1C1164,341.1,1010.6,363.74,981,370.22a50.79,50.79,0,1,0,18.55,39.25c0-1.23,0-2.44-.13-3.64,77.93-23.84,169.47,13,211.91,90.47,50.38,91.88,19.81,203.22-69.19,252-37.46,20.53-74.49,27.62-116.23,21.61a12.81,12.81,0,0,0-14.43,10.26l-1.39,7.27a12.46,12.46,0,0,0,2.13,9.8,12.26,12.26,0,0,0,8.5,5.28Zm42.52-168.93c1.29-.39,2.51-.79,3.72-1.19a50.79,50.79,0,1,0-36.36-5.39c-10.88,50-41.66,91.31-89.48,117.53-88.14,48.33-204.31,13.91-253-74.88-37.56-68.4-28.32-146.52,21.2-205.9a12.85,12.85,0,0,0-1.46-17.92l-4.72-4.09a12.8,12.8,0,0,0-17.65.84,188.25,188.25,0,0,0-29.28,40.05C639.71,512.33,633,549.53,633,582c-.07,35.5,9.47,71.63,27.82,105,46.66,85.14,130.89,125.42,220.59,110.61,84.76-14,152.82-57.69,181.77-164ZM802.5,568.38a1.07,1.07,0,0,1,.15.44,50.79,50.79,0,1,0,97.64,22.79l.34-1.1-.28-.07c0-.75.07-1.51.07-2.26a50.78,50.78,0,0,0-50.79-50.78,50.24,50.24,0,0,0-26,7.15c-11.24-12.74-21.74-28.26-32-47.09-47-85.66-12.26-194.51,77.72-243.82,89.53-49,199.87-16.62,249,73.14a173,173,0,0,1,9,18.46,12.78,12.78,0,0,0,16.08,7.34l4.71-1.64a12.84,12.84,0,0,0,8.05-16,153.66,153.66,0,0,0-22.6-45.66c-65.87-90.52-180.71-119.52-278.25-66.06-38,20.82-71.93,56-92.06,92.82-60.86,111.11,4.45,220.19,39.27,252.3Z" transform="translate(-632.97 -196.51)"/></svg>