<?xml version="1.0" encoding="utf-8"?>
<!-- Generator: Adobe Illustrator 25.2.0, SVG Export Plug-In . SVG Version: 6.00 Build 0)  -->
<svg version="1.1" id="Layer_1" xmlns="http://www.w3.org/2000/svg" xmlns:xlink="http://www.w3.org/1999/xlink" x="0px" y="0px"
	 viewBox="0 0 1920 1080" style="enable-background:new 0 0 1920 1080;" xml:space="preserve">
<style type="text/css">
	.st0{fill:url(#SVGID_1_);}
	.st1{fill:#00A99D;}
	.st2{font-family:'Poppins-SemiBold';}
	.st3{font-size:186.1733px;}
	.st4{letter-spacing:14;}
	.st5{font-family:'Poppins-SemiBoldItalic';}
	.st6{letter-spacing:3;}
	.st7{letter-spacing:7;}
</style>
<linearGradient id="SVGID_1_" gradientUnits="userSpaceOnUse" x1="256.1708" y1="-9289.043" x2="-19187.1172" y2="2124.8811" gradientTransform="matrix(0.0333 0 0 -0.0333 649.6932 310.9863)">
	<stop  offset="0" style="stop-color:#62C3AF"/>
	<stop  offset="0.5571" style="stop-color:#4AAC9E"/>
	<stop  offset="1" style="stop-color:#34978F"/>
</linearGradient>
<path class="st0" d="M406.17,677.84c40.63,6.31,78.13-1.22,117.29-22.72c96.79-53.12,127.53-165.21,72.68-265.07
	c-64.19-117.09-198.8-97.23-224.82-91.54c-7.69-6.33-17.55-10.14-28.29-10.14c-24.64,0-44.58,19.96-44.58,44.58
	s19.95,44.56,44.58,44.56c24.61,0,44.56-19.95,44.56-44.56c0-1.08-0.02-2.14-0.11-3.2c68.38-20.92,148.7,11.42,185.94,79.38
	c44.21,80.62,17.38,178.31-60.71,221.14c-32.86,18.01-65.36,24.23-101.98,18.95c-5.95-0.86-11.53,3.11-12.66,9.01l-1.22,6.37
	c-0.58,3.12,0.03,5.99,1.87,8.6c1.8,2.6,4.32,4.14,7.46,4.64V677.84z M443.48,529.62c1.13-0.35,2.21-0.7,3.26-1.05
	c19.89-4.49,34.7-22.25,34.7-43.48c0-24.61-19.95-44.55-44.56-44.55c-24.64,0-44.56,19.95-44.56,44.55
	c0,16.61,9.07,31.09,22.52,38.76c-9.54,43.83-36.55,80.11-78.51,103.12c-77.33,42.4-179.26,12.2-221.95-65.71
	c-32.96-60.01-24.84-128.56,18.61-180.66c3.91-4.71,3.35-11.71-1.28-15.72l-4.15-3.59c-4.54-3.92-11.31-3.62-15.48,0.73
	c-8.58,8.9-17.35,20.09-25.69,35.14C71.92,423.21,66.06,455.84,66,484.37c-0.06,31.14,8.31,62.85,24.41,92.13
	c40.94,74.7,114.85,110.05,193.55,97.05c74.37-12.26,134.09-50.62,159.48-143.91L443.48,529.62z M214.75,472.38
	c0.07,0.09,0.09,0.23,0.12,0.39c-2.16,5.24-3.35,10.96-3.35,16.97c0,24.63,19.97,44.58,44.58,44.58c23.59,0,42.91-18.34,44.45-41.56
	l0.29-0.96l-0.24-0.06c0.03-0.66,0.06-1.33,0.06-1.98c0-24.61-19.95-44.56-44.56-44.56c-8.34,0-16.15,2.27-22.8,6.27
	c-9.86-11.17-19.07-24.79-28.12-41.31c-41.23-75.16-10.75-170.67,68.19-213.93c78.56-43.01,175.37-14.58,218.48,64.17
	c3.26,5.93,5.77,11.03,7.88,16.2c2.21,5.59,8.42,8.4,14.11,6.44l4.14-1.44c5.75-1.98,8.87-8.19,7.06-14
	c-4.02-12.8-9.71-26.13-19.83-40.07c-57.8-79.43-158.56-104.87-244.14-57.96c-33.36,18.27-63.11,49.17-80.78,81.44
	C126.89,348.5,184.2,444.21,214.75,472.38L214.75,472.38z"/>
<text transform="matrix(1 0 0 1 658.5415 564.1689)"><tspan x="0" y="0" class="st1 st2 st3 st4">S</tspan><tspan x="128.27" y="0" class="st1 st5 st3 st4">W</tspan><tspan x="333.81" y="0" class="st1 st2 st3 st6">EAV</tspan><tspan x="709.69" y="0" class="st1 st2 st3 st7">EN</tspan></text>
</svg>
